<svg width="1174" height="887" viewBox="0 0 1174 887" fill="none" xmlns="http://www.w3.org/2000/svg">
<g clip-path="url(#clip0_15_10)">
<g clip-path="url(#clip1_15_10)">
<path fill-rule="evenodd" clip-rule="evenodd" d="M349.293 527.814L387.639 537.152L414.76 508.761L453.218 518.127L467.951 507.086L470.563 510.571L456.01 521.476L458.091 528.586L467.083 554.93L500.934 554.428L512.226 520.596L497.423 510.173L499.931 506.612L514.472 516.851L554.152 508.743L580.326 538.281L618.795 530.421L644.433 559.352L680.619 551.959L692.444 516.525L665.833 486.494L678.56 448.362L652.271 418.695L664.996 380.567L638.594 350.772L652.112 310.268L656.243 311.648L643.522 349.765L670.172 379.84L669.687 380.269L657.198 417.688L683.848 447.762L683.144 448.386L670.76 485.488L696.108 514.092L733.798 506.391L761.38 537.517L748.952 574.761L773.18 602.102L811.648 594.244L837.77 623.723L875.483 624.019L899.293 591.452L939.258 595.768L962.653 563.768L1002.62 568.086L1025.94 536.183L1029.46 538.754L1004.43 572.986L1003.91 572.606L964.687 568.368L940.969 600.807L940.208 600.253L901.326 596.052L879.078 626.482L890.41 662.328L924.289 673.633L931.425 708.577L965.01 719.782L972.117 754.588L1005.81 765.829L1012.92 800.635L1046.34 811.784L1044.96 815.917L1010.4 804.385L1009.29 804.613L1009.16 803.97L1008.53 803.762L1008.89 802.679L1002.05 769.165L969.602 758.338L968.485 758.566L968.355 757.922L967.729 757.714L968.091 756.634L961.245 723.118L928.634 712.237L927.765 712.415L927.661 711.912L926.925 711.667L927.352 710.391L920.524 676.968L889.463 666.603L872.966 678.387L870.476 674.906L886.321 663.587L875.163 628.298L838.351 628.008L826.595 663.233L842.094 674.683L839.55 678.124L822.522 665.546L787.596 672.681L775.166 709.926L734.418 718.251L708.243 688.713L669.773 696.573L643.954 667.436L625.052 671.297L624.2 667.127L642.905 663.303L654.452 628.707L630.407 601.572L594.673 608.874L583.171 643.334L595.881 657.677L592.694 660.501L578.354 644.319L590.697 607.336L566.286 579.788L527.818 587.648L502.223 558.765L466.101 559.301L438.119 588.593L399.773 579.255L372.651 607.646L332.242 597.805L320.563 557.889L349.293 527.814ZM929.326 710.437L962.91 721.642L970.02 756.446L1003.71 767.689L1010.82 802.495L1043.74 813.479L1043.9 813.003L1011.26 802.11L1004.15 767.304L970.452 756.063L963.345 721.257L929.76 710.052L922.624 675.108L888.869 663.845L876.946 626.132L900.426 594.016L939.569 598.246L939.624 597.747L900.192 593.487L876.457 625.954L836.897 625.642L810.944 596.354L772.476 604.212L746.773 575.205L759.201 537.962L733.094 508.501L695.404 516.202L668.581 485.933L681.044 448.588L680.569 448.428L668.012 486.049L694.624 516.081L682.095 553.624L643.729 561.462L618.091 532.53L579.622 540.391L553.448 510.854L514.043 518.905L500.397 509.296L500.108 509.706L514.507 519.846L502.329 556.335L465.712 556.877L456.254 529.167L453.787 520.736L467.866 510.185L467.565 509.783L453.646 520.214L415.385 510.896L388.263 539.288L349.917 529.949L322.724 558.415L333.779 596.197L372.026 605.511L399.148 577.12L437.494 586.458L465.266 557.386L503.079 556.825L528.522 585.538L566.99 577.678L592.877 606.89L580.534 643.873L592.858 657.782L593.161 657.513L580.992 643.78L593.197 607.209L631.111 599.462L656.632 628.262L644.382 664.97L626.474 668.628L626.553 669.024L644.659 665.326L670.478 694.462L708.947 686.603L735.122 716.141L773.691 708.261L786.121 671.016L822.978 663.485L839.146 675.429L839.399 675.086L824.322 663.95L836.967 626.069L876.578 626.381L888.578 664.341L873.166 675.353L873.413 675.701L889.14 664.463L922.189 675.493L929.326 710.437ZM680.727 447.954L681.129 447.597L655.019 418.133L667.482 380.788L667.007 380.628L654.45 418.25L680.74 447.917L680.727 447.954ZM667.076 380.009L667.452 379.675L641.342 350.21L653.806 312.865L653.33 312.706L640.773 350.327L667.076 380.009ZM940.119 597.8L940.55 598.116L963.788 566.333L1002.93 570.562L1002.98 570.062L963.552 565.802L940.158 597.804L940.119 597.8ZM1003.61 569.999L1004.01 570.295L1026.77 539.172L1026.36 538.876L1003.61 569.999ZM350.08 530.505L387.765 539.683L398.656 576.908L371.864 604.955L334.179 595.777L323.287 558.553L350.08 530.505ZM325.449 559.079L335.716 594.169L371.239 602.82L396.495 576.381L386.228 541.292L350.705 532.641L325.449 559.079ZM415.548 511.452L452.771 520.517L455.775 529.32L464.124 557.854L437.331 585.902L399.647 576.724L388.755 539.5L415.548 511.452ZM390.917 540.026L401.184 575.116L436.707 583.767L461.963 557.328L453.938 529.902L451.288 522.139L416.173 513.587L390.917 540.026ZM467.824 546.309L498.395 546.55L498.367 550.096L467.796 549.855L467.824 546.309ZM515.655 519.088L553.264 511.404L578.987 540.431L566.708 577.224L528.706 584.988L503.94 557.04L515.655 519.088ZM517.16 520.747L506.101 556.573L529.41 582.878L565.232 575.559L576.807 540.877L552.56 513.514L517.16 520.747ZM521.27 525.257L553.769 518.617L554.478 522.091L521.98 528.731L521.27 525.257ZM528.656 573.875L561.154 567.236L561.864 570.71L529.366 577.35L528.656 573.875ZM579.905 540.846L617.907 533.081L643.476 561.936L631.123 598.947L593.348 606.665L567.625 577.638L579.905 540.846ZM569.805 577.192L594.052 604.555L629.648 597.282L641.297 562.381L617.203 535.191L581.38 542.51L569.805 577.192ZM585.376 546.328L617.874 539.688L618.585 543.162L586.086 549.802L585.376 546.328ZM592.762 594.947L625.26 588.308L625.97 591.781L593.471 598.421L592.762 594.947ZM694.908 516.815L732.911 509.05L758.635 538.078L746.427 574.649L708.198 582.46L682.63 553.607L694.908 516.815ZM644.239 561.871L682.014 554.153L707.582 583.006L695.302 619.799L657.3 627.563L631.885 598.883L644.239 561.871ZM684.809 553.162L708.902 580.35L744.952 572.984L756.453 538.525L732.206 511.162L696.384 518.48L684.809 553.162ZM634.065 598.437L645.714 563.536L681.31 556.263L705.402 583.451L693.826 618.135L658.004 625.453L634.065 598.437ZM649.481 567.401L681.979 560.762L682.689 564.234L650.191 570.875L649.481 567.401ZM588.352 643.385L591.006 641.033L601.411 652.776L598.758 655.127L588.352 643.385ZM656.868 616.021L689.366 609.38L690.074 612.855L657.577 619.495L656.868 616.021ZM657.144 628.313L695.374 620.501L720.943 649.357L708.664 686.149L670.662 693.913L644.939 664.885L657.144 628.313ZM708.272 583.164L746.273 575.401L771.841 604.254L759.563 641.045L721.56 648.81L695.991 619.957L708.272 583.164ZM647.119 664.439L671.366 691.803L707.187 684.482L718.764 649.802L694.67 622.611L658.619 629.977L647.119 664.439ZM698.171 619.512L722.264 646.701L758.086 639.379L769.662 604.699L745.569 577.51L709.747 584.829L698.171 619.512ZM651.992 662.708L654.646 660.356L676.642 685.178L673.988 687.53L651.992 662.708ZM720.975 637.092L753.473 630.452L754.182 633.924L721.684 640.565L720.975 637.092ZM721.861 649.772L759.863 642.005L785.586 671.033L773.306 707.826L735.305 715.59L709.581 686.562L721.861 649.772ZM772.759 604.669L810.761 596.902L836.396 625.831L824.076 662.75L786.202 670.487L760.479 641.459L772.759 604.669ZM711.761 686.116L736.009 713.48L771.831 706.161L783.407 671.478L759.159 644.115L723.337 651.437L711.761 686.116ZM762.659 641.014L786.906 668.377L822.601 661.085L834.215 626.278L810.055 599.014L774.235 606.334L762.659 641.014ZM778.229 610.152L810.727 603.511L811.436 606.987L778.936 613.626L778.229 610.152ZM785.614 658.772L818.112 652.131L818.823 655.606L786.323 662.245L785.614 658.772ZM734.717 703.874L767.216 697.233L767.925 700.709L735.428 707.349L734.717 703.874ZM841.764 631.555L872.337 631.796L872.307 635.342L841.737 635.101L841.764 631.555Z" fill="#00B5F1"/>
</g>
<g clip-path="url(#clip2_15_10)">
<path fill-rule="evenodd" clip-rule="evenodd" d="M48.8425 0L67.4168 26.77L99.7099 24.0768L118.338 50.9249L133.482 52.1699L133.188 55.7539L118.23 54.5242L115.623 60.0567L106.757 81.2613L127.942 99.4885L153.435 84.764L149.997 70.2169L153.495 69.3896L156.873 83.68L185.82 100.4V132.986L213.884 149.195V181.114L240.283 196.361L266.982 180.94V147.808L295.716 131.213V98.4828L324.446 81.8887V49.0185L354.966 31.3909L356.762 34.5051L328.04 51.0946V84.2738H327.506L299.311 100.559V133.738H298.534L270.577 149.885V181.442L298.073 197.323V231.663L270.01 247.872V278.037L298.073 294.246V326.768L321.205 347.604L353.738 340.517L376.061 365.07L408.028 358.106L430.352 382.661L462.219 375.717L462.984 379.231L428.788 386.68L428.672 386.159L406.766 362.062L374.358 369.121L374.193 368.362L352.476 344.473L322.077 351.095L309.457 379.452L324.195 404.991L309.477 430.494L324.088 455.81L309.427 481.211L324.088 506.611L309.427 532.012L323.965 557.201L320.851 559L305.818 532.95L305.006 532.481L305.276 532.012L305.004 531.541L305.82 531.07L319.937 506.611L305.82 482.151L305.006 481.68L305.278 481.211L305.006 480.74L305.82 480.271L319.937 455.81L305.749 431.227L305.115 430.861L305.326 430.494L305.006 429.939L305.967 429.384L320.044 404.991L306.532 381.575L289.892 379.824L290.261 376.309L306.242 377.991L318.665 350.073L296.088 329.734L269.543 345.065L272.85 360.629L269.394 361.362L265.762 344.264L240.283 329.548L212.219 345.757L182.492 328.587V296L154.428 279.79V247.646L140.638 239.68L142.395 236.637L156.042 244.519L182.111 229.46V199.524L156.042 184.467L130.075 199.465V215.289H126.561V197.436L154.428 181.34V150.949L126.364 134.74V102.875L103.759 83.4246L70.4412 86.2033L51.8667 59.4333L19.5737 62.1263L0 33.9161L14.6344 2.85287L48.8425 0ZM307.162 430.494L321.773 455.81L307.114 481.211L321.773 506.611L307.112 532.012L321.433 556.827L321.793 556.62L307.591 532.012L322.252 506.611L307.591 481.211L322.252 455.81L307.641 430.494L322.359 404.991L307.674 379.546L320.952 349.711L353.035 342.721L374.897 366.771L375.203 366.493L353.18 342.266L320.748 349.333L296.483 327.476V295.165L268.419 278.955V246.954L296.483 230.745V198.241L268.987 182.36V148.966L297.127 132.713L296.92 132.354L268.572 148.727V181.858L240.283 198.198L212.294 182.033V150.114L184.23 133.905V101.318L155.483 84.7143L152.314 71.3037L151.911 71.3991L155.255 85.5499L127.76 101.43L104.845 81.7136L114.17 59.4104L117.261 52.8484L131.733 54.0381L131.767 53.625L117.46 52.4488L98.927 25.7385L66.634 28.4315L48.0596 1.66159L15.6814 4.36185L1.82981 33.7634L20.3565 60.4648L52.6497 57.7716L71.2239 84.5416L104.291 81.784L127.955 102.145V133.821L156.018 150.03V182.258L128.151 198.354V213.698H128.485V198.547L156.042 182.631L183.701 198.606V230.379L156.042 246.356L142.977 238.809L142.81 239.098L156.018 246.727V278.872L184.082 295.081V327.669L212.219 343.92L240.283 327.711L267.171 343.24L270.621 359.476L270.964 359.402L267.749 344.264L296.292 327.778L320.589 349.663L307.223 379.693L291.676 378.059L291.638 378.408L307.504 380.076L321.88 404.991L307.162 430.494ZM297.278 132.147H297.719V99.6406L325.861 83.387L325.654 83.0282L297.306 99.4012V132.132L297.278 132.147ZM326.035 82.6831H326.451V50.1762L354.59 33.9229L354.384 33.5639L326.035 49.9369V82.6831ZM375.481 366.797L375.574 367.228L407.325 360.31L429.187 384.36L429.493 384.082L407.47 359.855L375.503 366.821L375.481 366.797ZM429.914 384.384L430.002 384.788L461.092 378.015L461.003 377.609L429.914 384.384ZM47.8557 2.09456L66.1096 28.4026L52.4621 57.3714L20.5606 60.0319L2.30661 33.7237L15.9542 4.75506L47.8557 2.09456ZM17.0012 6.26404L4.13644 33.571L21.3433 58.3702L51.4151 55.8624L64.2797 28.5553L47.0728 3.75615L17.0012 6.26404ZM98.7231 26.1714L116.753 52.1572L113.791 59.2421L103.329 81.4482L71.428 84.1086L53.1741 57.8004L66.8216 28.8318L98.7231 26.1714ZM67.8686 30.3409L55.0038 57.648L72.2107 82.4471L102.282 79.9392L112.338 58.5956L114.95 52.3478L97.9402 27.8329L67.8686 30.3409ZM111.934 76.3391L130.685 93.2296L128.727 95.4053L109.976 78.5146L111.934 76.3391ZM156.379 85.7105L183.816 101.557V133.582L156.092 149.594L128.369 133.582V102.749L156.379 85.7105ZM156.4 87.5594L129.959 103.643V132.663L156.092 147.757L182.225 132.663V102.476L156.4 87.5594ZM156.471 92.5976L180.179 106.291L178.715 108.826L155.007 95.133L156.471 92.5976ZM134.42 126.687L158.129 140.381L156.665 142.916L132.957 129.223L134.42 126.687ZM184.156 134.34L211.879 150.353V182.186L183.99 198.294L156.433 182.378V150.353L184.156 134.34ZM158.023 151.271V181.459L183.99 196.457L210.289 181.268V151.271L184.156 136.177L158.023 151.271ZM184.534 140.725L208.243 154.418L206.778 156.954L183.071 143.26L184.534 140.725ZM162.484 174.815L186.192 188.508L184.729 191.044L161.021 177.35L162.484 174.815ZM268.345 182.468L296.07 198.481V230.506L268.512 246.421L240.623 230.313V198.481L268.345 182.468ZM212.386 182.564L239.943 198.481V230.313L212.219 246.326L184.496 230.313V198.672L212.386 182.564ZM242.213 199.399V229.395L268.512 244.584L294.478 229.588V199.399L268.345 184.305L242.213 199.399ZM186.086 199.59L212.386 184.401L238.354 199.399V229.395L212.219 244.489L186.086 229.395V199.59ZM212.596 188.852L236.305 202.546L234.84 205.081L211.132 191.388L212.596 188.852ZM133.248 202.333H136.174V215.289H133.248V202.333ZM190.546 222.942L214.254 236.637L212.791 239.171L189.083 225.479L190.546 222.942ZM183.99 230.691L211.879 246.801V278.633L184.156 294.646L156.433 278.633V246.608L183.99 230.691ZM240.283 230.788L268.005 246.799V278.633L240.281 294.646L212.559 278.633V246.801L240.283 230.788ZM158.023 247.526V277.715L184.156 292.807L210.289 277.715V247.719L183.99 232.528L158.023 247.526ZM214.148 247.719V277.715L240.281 292.807L266.416 277.715V247.719L240.283 232.625L214.148 247.719ZM161.981 249.125H164.907V276.51H161.981V249.125ZM218.612 271.071L242.32 284.764L240.855 287.299L217.149 273.606L218.612 271.071ZM212.219 279.393L239.943 295.403V327.428L212.219 343.441L184.496 327.428V295.403L212.219 279.393ZM268.345 279.393L296.07 295.403V327.319L268.252 343.387L240.623 327.428V295.403L268.345 279.393ZM186.086 296.322V326.51L212.219 341.604L238.354 326.51V296.322L212.219 281.229L186.086 296.322ZM242.213 296.322V326.51L268.252 341.551L294.478 326.401V296.322L268.345 281.229L242.213 296.322ZM268.723 285.776L292.429 299.469L290.967 302.005L267.258 288.31L268.723 285.776ZM246.672 319.866L270.38 333.559L268.918 336.094L245.209 322.401L246.672 319.866ZM190.546 319.866L214.254 333.559L212.791 336.096L189.083 322.403L190.546 319.866ZM296.252 333.796L315.003 350.687L313.046 352.862L294.295 335.973L296.252 333.796Z" fill="#00B5F1"/>
</g>
</g>
<defs>
<clipPath id="clip0_15_10">
<rect width="1173.87" height="1073.75" fill="white"/>
</clipPath>
<clipPath id="clip1_15_10">
<rect width="561" height="677" fill="white" transform="translate(305 567.063) rotate(-41.5455)"/>
</clipPath>
<clipPath id="clip2_15_10">
<rect width="463" height="559" fill="white"/>
</clipPath>
</defs>
</svg>
