<svg width="557" height="296" viewBox="0 0 557 296" fill="none" xmlns="http://www.w3.org/2000/svg">
<g clip-path="url(#clip0_1_173)">
<path d="M39.7667 187.32H52.2047V211.169H77.7651V187.32H90.2031V246.657H77.7651V221.325H52.2047V246.657H39.7667V187.32ZM125.538 248.027C121.278 248.027 117.474 247.304 114.127 245.858C110.78 244.413 107.927 242.359 105.569 239.697C103.21 236.958 101.385 233.687 100.091 229.883C98.8742 226.003 98.2656 221.705 98.2656 216.989C98.2656 212.272 98.8742 208.012 100.091 204.209C101.385 200.329 103.21 197.058 105.569 194.395C107.927 191.657 110.78 189.565 114.127 188.119C117.474 186.674 121.278 185.951 125.538 185.951C129.874 185.951 133.678 186.712 136.949 188.233C140.296 189.755 143.073 191.885 145.279 194.623C147.485 197.286 149.12 200.405 150.185 203.98C151.326 207.556 151.897 211.397 151.897 215.505V220.184H111.16V222.124C111.16 226.688 112.491 230.454 115.154 233.421C117.892 236.311 121.772 237.757 126.793 237.757C130.444 237.757 133.525 236.958 136.036 235.36C138.546 233.763 140.676 231.595 142.426 228.856L149.729 236.045C147.523 239.697 144.328 242.625 140.144 244.831C135.96 246.962 131.091 248.027 125.538 248.027ZM125.538 195.65C123.408 195.65 121.43 196.031 119.604 196.791C117.854 197.552 116.333 198.617 115.04 199.987C113.823 201.356 112.872 202.991 112.187 204.893C111.502 206.795 111.16 208.887 111.16 211.169V211.968H138.774V210.827C138.774 206.263 137.595 202.611 135.237 199.872C132.879 197.058 129.646 195.65 125.538 195.65ZM188.944 240.381H188.488C187.042 242.816 185.255 244.717 183.125 246.087C181.071 247.38 178.598 248.027 175.708 248.027C169.165 248.027 164.297 245.554 161.102 240.609C157.906 235.665 156.309 227.791 156.309 216.989C156.309 206.186 157.868 198.313 160.987 193.368C164.182 188.423 169.089 185.951 175.707 185.951C178.598 185.951 181.071 186.636 183.125 188.005C185.255 189.374 187.042 191.276 188.488 193.71H188.944V165.64H201.382V193.71H201.839C203.284 191.276 205.034 189.374 207.088 188.005C209.218 186.636 211.728 185.951 214.619 185.951C221.237 185.951 226.106 188.423 229.225 193.368C232.42 198.313 234.017 206.186 234.017 216.989C234.017 227.791 232.42 235.665 229.225 240.609C226.03 245.554 221.161 248.027 214.619 248.027C211.728 248.027 209.218 247.38 207.088 246.087C205.034 244.717 203.284 242.816 201.839 240.381H201.382V269.479H188.944V240.381ZM179.93 238.213C186.015 238.213 189.058 235.741 189.058 230.796V203.182C189.058 200.823 188.336 198.998 186.89 197.704C185.445 196.411 183.125 195.764 179.93 195.764C176.202 195.764 173.501 197.02 171.828 199.53C170.154 201.964 169.317 205.996 169.317 211.626V222.352C169.317 228.057 170.154 232.127 171.828 234.562C173.501 236.996 176.202 238.213 179.93 238.213ZM210.397 238.213C214.124 238.213 216.825 236.996 218.499 234.562C220.172 232.127 221.009 228.057 221.009 222.352V211.626C221.009 205.996 220.172 201.964 218.499 199.53C216.825 197.02 214.124 195.764 210.397 195.764C207.202 195.764 204.881 196.411 203.436 197.704C201.991 198.998 201.268 200.823 201.268 203.182V230.796C201.268 235.741 204.311 238.213 210.397 238.213ZM253.944 197.476H235.002V187.32H285.324V197.476H266.382V246.657H253.944V197.476ZM313.016 248.027C308.756 248.027 304.952 247.304 301.605 245.858C298.258 244.413 295.405 242.359 293.047 239.697C290.688 236.958 288.863 233.687 287.569 229.883C286.352 226.003 285.744 221.705 285.744 216.989C285.744 212.272 286.352 208.012 287.569 204.209C288.863 200.329 290.688 197.058 293.047 194.395C295.405 191.657 298.258 189.565 301.605 188.119C304.952 186.674 308.756 185.951 313.016 185.951C317.352 185.951 321.156 186.712 324.427 188.233C327.774 189.755 330.551 191.885 332.757 194.623C334.963 197.286 336.598 200.405 337.663 203.98C338.804 207.556 339.375 211.397 339.375 215.505V220.184H298.638V222.124C298.638 226.688 299.969 230.454 302.632 233.421C305.37 236.311 309.25 237.757 314.271 237.757C317.922 237.757 321.003 236.958 323.514 235.36C326.024 233.763 328.154 231.595 329.904 228.856L337.207 236.045C335.001 239.697 331.806 242.625 327.622 244.831C323.438 246.962 318.569 248.027 313.016 248.027ZM313.016 195.65C310.886 195.65 308.908 196.031 307.082 196.791C305.332 197.552 303.811 198.617 302.518 199.987C301.301 201.356 300.35 202.991 299.665 204.893C298.98 206.795 298.638 208.887 298.638 211.169V211.968H326.252V210.827C326.252 206.263 325.073 202.611 322.715 199.872C320.357 197.058 317.124 195.65 313.016 195.65Z" fill="black"/>
<path d="M347.438 187.32H359.876V211.283H370.374L380.188 194.737C381.861 191.923 383.535 189.983 385.209 188.918C386.882 187.853 389.012 187.32 391.599 187.32H397.647V197.476H391.028L383.497 210.028C382.356 212.006 381.329 213.375 380.416 214.136C379.579 214.897 378.438 215.467 376.993 215.848V216.304C378.514 216.608 379.846 217.179 380.987 218.016C382.128 218.777 383.231 220.146 384.296 222.124L392.283 236.501H398.788V246.657H391.713C389.202 246.657 387.034 246.087 385.209 244.946C383.459 243.804 381.785 241.789 380.188 238.898L370.374 221.325H359.876V246.657H347.438V187.32ZM428.306 248.027C424.198 248.027 420.433 247.304 417.01 245.858C413.662 244.413 410.81 242.359 408.451 239.697C406.093 236.958 404.267 233.687 402.974 229.883C401.681 226.003 401.034 221.705 401.034 216.989C401.034 212.272 401.681 208.012 402.974 204.209C404.267 200.329 406.093 197.058 408.451 194.395C410.81 191.657 413.662 189.565 417.01 188.119C420.433 186.674 424.198 185.951 428.306 185.951C432.414 185.951 436.142 186.674 439.489 188.119C442.912 189.565 445.803 191.657 448.161 194.395C450.52 197.058 452.345 200.329 453.639 204.209C454.932 208.012 455.578 212.272 455.578 216.989C455.578 221.705 454.932 226.003 453.639 229.883C452.345 233.687 450.52 236.958 448.161 239.697C445.803 242.359 442.912 244.413 439.489 245.858C436.142 247.304 432.414 248.027 428.306 248.027ZM428.306 237.757C432.566 237.757 435.99 236.463 438.576 233.877C441.163 231.214 442.456 227.259 442.456 222.01V211.968C442.456 206.719 441.163 202.801 438.576 200.215C435.99 197.552 432.566 196.221 428.306 196.221C424.046 196.221 420.623 197.552 418.036 200.215C415.45 202.801 414.157 206.719 414.157 211.968V222.01C414.157 227.259 415.45 231.214 418.036 233.877C420.623 236.463 424.046 237.757 428.306 237.757ZM455.524 236.501H462.713C464.919 233.078 466.631 228.78 467.848 223.607C469.141 218.358 469.788 211.93 469.788 204.323V187.32H513.149V236.501H523.191V262.633H511.894V246.657H466.821V262.633H455.524V236.501ZM500.711 236.501V197.476H481.655V205.007C481.655 212.995 481.085 219.537 479.943 224.634C478.802 229.655 477.471 233.611 475.95 236.501H500.711Z" fill="#00B5F1"/>
<path d="M278.5 0L334.137 32.1223V96.367L278.5 128.489L222.862 96.367V32.1223L278.5 0Z" fill="#00B5F1"/>
<path fill-rule="evenodd" clip-rule="evenodd" d="M280.885 56.5644L295.416 48.1748L296.528 50.1007L283.109 57.8483V72.7015L295.972 80.1281L309.392 72.3805L310.503 74.3064L295.972 82.6959L280.885 73.9854V56.5644Z" fill="white"/>
<path fill-rule="evenodd" clip-rule="evenodd" d="M296.993 98.5108L282.178 107.064L281.066 105.138L294.769 97.2269V82.0459L281.622 74.4554L267.919 82.3669L266.807 80.441L281.622 71.8876L296.993 80.762V98.5108Z" fill="white"/>
<path fill-rule="evenodd" clip-rule="evenodd" d="M255.172 57.7699V72.5775L267.996 79.9813L280.819 72.5775V57.7699L267.996 50.3661L255.172 57.7699ZM267.996 47.7983L252.948 56.486V73.8614L267.996 82.5491L283.043 73.8614V56.486L267.996 47.7983Z" fill="white"/>
<path fill-rule="evenodd" clip-rule="evenodd" d="M311.515 25.3641L296.769 33.878L295.657 31.9521L310.404 23.4382L311.515 25.3641Z" fill="white"/>
<path d="M266.999 32.5686L282.047 23.8809L297.094 32.5685V49.9439L282.047 58.6316L266.999 49.9439V32.5686Z" fill="white"/>
<path fill-rule="evenodd" clip-rule="evenodd" d="M269.223 33.8525V48.66L282.047 56.0638L294.871 48.66V33.8525L282.047 26.4487L269.223 33.8525ZM282.047 23.8809L266.999 32.5686V49.9439L282.047 58.6316L297.094 49.9439V32.5685L282.047 23.8809Z" fill="white"/>
<path fill-rule="evenodd" clip-rule="evenodd" d="M254.7 74.4578L239.953 82.9718L238.841 81.0459L253.588 72.532L254.7 74.4578Z" fill="white"/>
<path fill-rule="evenodd" clip-rule="evenodd" d="M0.838867 140.513H72.6249V146.835H7.16098V180.761H0.838867V140.513ZM484.375 146.835V140.513H556.161V180.761H549.839V146.835H484.375ZM7.16098 288.86V254.934H0.838867V295.182H72.6249V288.86H7.16098ZM549.839 288.86V254.934H556.161V295.182H484.375V288.86H549.839Z" fill="#00B5F1"/>
</g>
<defs>
<clipPath id="clip0_1_173">
<rect width="557" height="296" fill="white"/>
</clipPath>
</defs>
</svg>
